<svg width="404" height="48" viewBox="0 0 404 48" fill="none" xmlns="http://www.w3.org/2000/svg">
<path fill-rule="evenodd" clip-rule="evenodd" d="M0 41.7128V11.2217C23.1145 5.33851 48.9237 0 98 0C152.279 0 178.441 4.63886 203.72 9.24275L204.622 9.4072C228.519 13.7608 251.787 18 301 18C349.705 18 374.366 12.4282 397.337 7.23822L397.344 7.23667C398.639 6.9442 399.928 6.65295 401.216 6.36397C402.148 6.15482 403.079 6.03736 404 6.00561V36.4887C380.098 41.8853 352.994 48 301 48C249.088 48 223.91 43.4141 198.894 38.8575L198.344 38.7572C174.206 34.3611 149.931 30 98 30C49.3294 30 26.0244 35.4619 3.7621 41.2297C2.50408 41.5557 1.24197 41.712 0 41.7128Z" fill="#88CFEB"/>
</svg>
