<svg width="27" height="27" viewBox="0 0 27 27" fill="none" xmlns="http://www.w3.org/2000/svg">
<path d="M1.23653 1.23674C0.846002 1.62727 0.846002 2.26043 1.23653 2.65095L24.3147 25.7292C24.7053 26.1197 25.3384 26.1197 25.729 25.7292C26.1195 25.3386 26.1195 24.7055 25.729 24.315L2.65074 1.23674C2.26021 0.846216 1.62705 0.846217 1.23653 1.23674Z" fill="#3F3F3F"/>
<path d="M1.19682 25.7641C1.58735 26.1546 2.22051 26.1546 2.61104 25.7641L14.1672 14.2079L25.7234 2.65175C26.1139 2.26122 26.1139 1.62806 25.7234 1.23753C25.3329 0.847008 24.6997 0.847008 24.3092 1.23753L1.19682 24.3499C0.806299 24.7404 0.8063 25.3736 1.19682 25.7641Z" fill="#3F3F3F"/>
<path d="M1.23653 1.23674C0.846002 1.62727 0.846002 2.26043 1.23653 2.65095L24.3147 25.7292C24.7053 26.1197 25.3384 26.1197 25.729 25.7292C26.1195 25.3386 26.1195 24.7055 25.729 24.315L2.65074 1.23674C2.26021 0.846216 1.62705 0.846217 1.23653 1.23674Z" stroke="#3F3F3F"/>
<path d="M1.19682 25.7641C1.58735 26.1546 2.22051 26.1546 2.61104 25.7641L14.1672 14.2079L25.7234 2.65175C26.1139 2.26122 26.1139 1.62806 25.7234 1.23753C25.3329 0.847008 24.6997 0.847008 24.3092 1.23753L1.19682 24.3499C0.806299 24.7404 0.8063 25.3736 1.19682 25.7641Z" stroke="#3F3F3F"/>
</svg>
