<svg width="14" height="14" viewBox="0 0 14 14" fill="none" xmlns="http://www.w3.org/2000/svg">
<g clip-path="url(#clip0_712_7997)">
<path d="M9.91667 1.16675H4.08333C2.4725 1.16675 1.16667 2.47258 1.16667 4.08341V9.91675C1.16667 11.5276 2.4725 12.8334 4.08333 12.8334H9.91667C11.5275 12.8334 12.8333 11.5276 12.8333 9.91675V4.08341C12.8333 2.47258 11.5275 1.16675 9.91667 1.16675Z" stroke="#444141" stroke-linecap="round" stroke-linejoin="round"/>
<path d="M9.33345 6.63268C9.40544 7.11815 9.32251 7.61397 9.09647 8.0496C8.87043 8.48523 8.51278 8.8385 8.0744 9.05915C7.63601 9.2798 7.13921 9.35661 6.65466 9.27864C6.1701 9.20067 5.72247 8.97189 5.37544 8.62485C5.0284 8.27782 4.79962 7.83019 4.72165 7.34563C4.64368 6.86108 4.72049 6.36428 4.94114 5.92589C5.16179 5.48751 5.51506 5.12986 5.95069 4.90382C6.38632 4.67778 6.88214 4.59485 7.36761 4.66684C7.86282 4.74028 8.32128 4.97103 8.67527 5.32502C9.02926 5.67901 9.26001 6.13747 9.33345 6.63268Z" stroke="#444141" stroke-linecap="round" stroke-linejoin="round"/>
<path d="M10.2083 3.79175H10.2142" stroke="#444141" stroke-linecap="round" stroke-linejoin="round"/>
</g>
<defs>
<clipPath id="clip0_712_7997">
<rect width="14" height="14" fill="white"/>
</clipPath>
</defs>
</svg>
