<svg width="26" height="23" viewBox="0 0 26 23" fill="none" xmlns="http://www.w3.org/2000/svg">
<path d="M1 11.6667H2.33333M23.6667 11.6667C24.0203 11.6667 24.3594 11.5262 24.6095 11.2761C24.8595 11.0261 25 10.687 25 10.3333V5C25 3.66667 24.2 1 21 1C17.8 1 17 3.66667 17 5M23.6667 11.6667V14.3333C23.6667 15.8507 22.8893 18.664 20.0067 19.4547M23.6667 11.6667H2.33333M2.33333 11.6667V14.3333C2.33333 15.8507 3.11067 18.664 5.99333 19.4547M5 22.3333L5.99333 19.4547M5.99333 19.4547C6.48667 19.5907 7.04267 19.6667 7.66667 19.6667H18.3333C18.8981 19.6716 19.461 19.6003 20.0067 19.4547M21 22.3333L20.0067 19.4547M17 5H14.3333M17 5H19.6667" stroke="#767676" stroke-linecap="round" stroke-linejoin="round"/>
</svg>
