<svg width="14" height="14" viewBox="0 0 14 14" fill="none" xmlns="http://www.w3.org/2000/svg">
<path d="M11.9799 9.48692V10.9923C11.9804 11.1321 11.9518 11.2704 11.8958 11.3985C11.8398 11.5265 11.7577 11.6414 11.6547 11.7359C11.5518 11.8304 11.4302 11.9023 11.2978 11.9471C11.1654 11.9919 11.0251 12.0085 10.886 11.9959C9.34183 11.8281 7.85859 11.3005 6.55541 10.4554C5.34297 9.68496 4.31504 8.65703 3.5446 7.44459C2.69655 6.13549 2.16879 4.64504 2.00407 3.09397C1.99153 2.95521 2.00802 2.81536 2.0525 2.68331C2.09697 2.55127 2.16845 2.42994 2.26238 2.32703C2.35632 2.22413 2.47065 2.14191 2.5981 2.08562C2.72555 2.02932 2.86333 2.00018 3.00266 2.00005H4.50806C4.75159 1.99765 4.98768 2.08389 5.17233 2.24269C5.35697 2.40148 5.47758 2.622 5.51166 2.86315C5.5752 3.34491 5.69304 3.81794 5.86292 4.27321C5.93044 4.45281 5.94505 4.64801 5.90503 4.83567C5.86501 5.02332 5.77203 5.19557 5.63711 5.33201L4.99983 5.9693C5.71417 7.22558 6.75435 8.26576 8.01063 8.9801L8.64792 8.34281C8.78435 8.2079 8.9566 8.11492 9.14426 8.0749C9.33192 8.03488 9.52711 8.04949 9.70672 8.117C10.162 8.28689 10.635 8.40473 11.1168 8.46827C11.3605 8.50265 11.5832 8.62543 11.7423 8.81325C11.9014 9.00107 11.986 9.24083 11.9799 9.48692Z" fill="#444141"/>
</svg>
