<svg width="26" height="21" viewBox="0 0 26 21" fill="none" xmlns="http://www.w3.org/2000/svg">
<path d="M1 19.6667V10.3333C1 9.55536 1.28095 8.80926 1.78105 8.25915C2.28115 7.70905 2.95942 7.4 3.66667 7.4M3.66667 7.4H22.3333M3.66667 7.4V3.93333C3.66667 3.15536 3.94762 2.40926 4.44772 1.85915C4.94781 1.30905 5.62609 1 6.33333 1H19.6667C20.3739 1 21.0522 1.30905 21.5523 1.85915C22.0524 2.40926 22.3333 3.15536 22.3333 3.93333V7.4M22.3333 7.4C23.0406 7.4 23.7189 7.70905 24.219 8.25915C24.7191 8.80926 25 9.55536 25 10.3333V19.6667M1 16.7333H25" stroke="#767676" stroke-linecap="round" stroke-linejoin="round"/>
</svg>
