<svg width="16" height="16" viewBox="0 0 16 16" fill="none" xmlns="http://www.w3.org/2000/svg">
<path d="M8.00075 1C6.77535 0.999869 5.57138 1.32142 4.50923 1.9325C3.44707 2.54359 2.56393 3.4228 1.94812 4.48222C1.33231 5.54164 1.0054 6.74416 1.00007 7.96955C0.994736 9.19494 1.31118 10.4003 1.91775 11.465L1.28775 13.677C1.24737 13.8206 1.24597 13.9724 1.2837 14.1168C1.32143 14.2611 1.39693 14.3928 1.50243 14.4983C1.60793 14.6038 1.73962 14.6793 1.88397 14.717C2.02832 14.7548 2.18012 14.7534 2.32375 14.713L4.53575 14.083C5.46722 14.6134 6.50806 14.9228 7.578 14.9873C8.64795 15.0518 9.71843 14.8698 10.7069 14.4552C11.6954 14.0406 12.5754 13.4046 13.2792 12.5961C13.983 11.7876 14.4917 10.8283 14.7661 9.79214C15.0406 8.75598 15.0734 7.67063 14.862 6.61978C14.6507 5.56893 14.2008 4.58066 13.5471 3.73115C12.8935 2.88165 12.0534 2.19361 11.0918 1.72009C10.1302 1.24656 9.07264 1.0002 8.00075 1ZM8.00075 14.44C6.84252 14.4427 5.70533 14.1306 4.71075 13.537C4.66733 13.5149 4.61946 13.5029 4.57075 13.502H4.49375L2.16975 14.167C2.12226 14.1797 2.07226 14.1798 2.02476 14.167C1.97727 14.1543 1.93396 14.1293 1.89919 14.0946C1.86443 14.0598 1.83943 14.0165 1.82671 13.969C1.81399 13.9215 1.81401 13.8715 1.82675 13.824L2.49175 11.5C2.51144 11.4268 2.50137 11.3488 2.46375 11.283C1.73938 10.0606 1.43965 8.63289 1.61123 7.22235C1.78281 5.81182 2.41608 4.49763 3.41238 3.48451C4.40869 2.47138 5.71209 1.81621 7.11956 1.62104C8.52702 1.42587 9.95952 1.70167 11.1939 2.40547C12.4283 3.10927 13.3953 4.20156 13.9442 5.51219C14.4931 6.82281 14.5931 8.27819 14.2287 9.6516C13.8643 11.025 13.0559 12.2393 11.9294 13.1054C10.803 13.9715 9.42168 14.4407 8.00075 14.44ZM11.5357 9.295L10.1077 8.483C9.97754 8.40841 9.82986 8.36976 9.6798 8.37099C9.52975 8.37222 9.38272 8.41329 9.25375 8.49L8.28775 9.071C7.70587 8.76921 7.23153 8.29488 6.92975 7.713L7.51075 6.747C7.58746 6.61803 7.62853 6.471 7.62976 6.32095C7.63099 6.17089 7.59234 6.02321 7.51775 5.893L6.70575 4.465C6.63832 4.34821 6.54141 4.25118 6.42471 4.18362C6.308 4.11605 6.1756 4.08032 6.04075 4.08C5.44788 4.08 4.87918 4.31503 4.4593 4.7336C4.03942 5.15217 3.8026 5.72013 3.80075 6.313C3.79983 7.08576 3.95124 7.85112 4.24633 8.56533C4.54141 9.27953 4.97438 9.92856 5.52048 10.4753C6.06659 11.0221 6.7151 11.4558 7.42895 11.7517C8.1428 12.0477 8.90799 12.2 9.68075 12.2H9.68775C10.2806 12.1981 10.8486 11.9613 11.2671 11.5414C11.6857 11.1216 11.9208 10.5529 11.9207 9.96C11.9204 9.82515 11.8847 9.69275 11.8171 9.57604C11.7496 9.45934 11.6525 9.36242 11.5357 9.295ZM9.68775 11.64H9.68075C8.26915 11.6381 6.91601 11.0761 5.91852 10.0773C4.92102 9.07848 4.36075 7.7246 4.36075 6.313C4.3626 5.86865 4.54042 5.44313 4.85528 5.12958C5.17014 4.81603 5.5964 4.64 6.04075 4.64C6.07659 4.64049 6.11167 4.65047 6.1424 4.66891C6.17314 4.68735 6.19845 4.71361 6.21575 4.745L7.03475 6.173C7.05864 6.21706 7.07116 6.26638 7.07116 6.3165C7.07116 6.36662 7.05864 6.41594 7.03475 6.46L6.37675 7.552C6.35251 7.59039 6.33849 7.63434 6.33604 7.67968C6.33359 7.72501 6.34278 7.77022 6.36275 7.811C6.7273 8.6233 7.37745 9.27345 8.18975 9.638C8.23053 9.65796 8.27574 9.66716 8.32107 9.66471C8.36641 9.66226 8.41036 9.64824 8.44875 9.624L9.54075 8.966C9.58481 8.94211 9.63413 8.92959 9.68425 8.92959C9.73437 8.92959 9.78369 8.94211 9.82775 8.966L11.2557 9.785C11.2871 9.8023 11.3134 9.82761 11.3318 9.85834C11.3503 9.88908 11.3603 9.92416 11.3607 9.96C11.3608 10.4044 11.1847 10.8306 10.8712 11.1455C10.5576 11.4603 10.1321 11.6381 9.68775 11.64Z" fill="#444141" stroke="#444141" stroke-width="0.5"/>
</svg>
