<?xml version="1.0" encoding="utf-8"?>
<!-- Generator: Adobe Illustrator 27.9.0, SVG Export Plug-In . SVG Version: 6.00 Build 0)  -->
<svg version="1.1" id="Layer_1" xmlns="http://www.w3.org/2000/svg" xmlns:xlink="http://www.w3.org/1999/xlink" x="0px" y="0px"
	 viewBox="0 0 168 60" style="enable-background:new 0 0 168 60;" xml:space="preserve">
<style type="text/css">
	.st0{fill:#004755;}
</style>
<g>
	<path class="st0" d="M43.9,6.7c0.3-0.7,0.7-1.2,1.1-1.5c0.5-0.3,1-0.5,1.5-0.5H56c0.9,0,1.3,0.4,1.3,1.2c0,0.3-0.1,0.6-0.2,0.9
		L38.7,52.5c-0.3,0.7-0.8,1.4-1.6,1.9c-0.8,0.5-1.6,0.8-2.6,0.8h-6.5c-0.9,0-1.6-0.3-2.2-0.8c-0.5-0.5-0.8-1.2-0.9-1.9l-1.8-16.3
		l-8.4,16.3c-0.3,0.8-0.9,1.4-1.7,1.9c-0.8,0.5-1.6,0.8-2.5,0.8H4c-0.9,0-1.7-0.3-2.2-0.9C1.2,53.8,1,53.1,1,52.5L2,7
		c0-0.6,0.2-1.1,0.5-1.5S3.4,4.8,4,4.8h9.2c0.5,0,1,0.2,1.3,0.5s0.5,0.8,0.5,1.5l-0.6,24.3l6.1-13c0.8-1.4,1.7-2.1,2.9-2.1h7.8
		c1.2,0,1.9,0.7,2,2.1l0.8,13L43.9,6.7z"/>
	<path class="st0" d="M93.5,6.5c2.7,1.1,4.8,2.7,6.3,4.8s2.3,4.6,2.3,7.4c0,1.1-0.1,2.4-0.4,3.7c-1.2,5.7-3.7,9.8-7.2,12.3
		c-3.6,2.6-8.7,3.8-15.5,3.8H69l-3.2,14.7c-0.1,0.5-0.4,1-0.8,1.4c-0.5,0.4-0.9,0.6-1.5,0.6h-9.4c-0.5,0-1-0.2-1.3-0.6
		c-0.3-0.4-0.4-0.8-0.3-1.4l9.9-46.5c0.1-0.5,0.4-1,0.8-1.4c0.5-0.4,0.9-0.6,1.5-0.6h19.9C87.9,4.8,90.8,5.3,93.5,6.5z M80.3,27.3
		c2.1,0,3.9-0.5,5.4-1.4c1.5-0.9,2.4-2.4,2.8-4.3c0.1-0.7,0.1-1.1,0.1-1.4c0-1.4-0.5-2.5-1.6-3.2S84.5,16,82.6,16h-8.9l-2.4,11.4
		L80.3,27.3L80.3,27.3z"/>
	<path d="M166.7,48.9l-2.8-2.1v2.1c0,0-1-0.3-1.8-0.3s-1.2-6-1.2-6l-1.5,2.5l-1,3.5l-1.5-2l-3,2c0,0,1-2,2-5
		c0.6-1.8,1.1-6.9,1.4-10.5c-1.4-0.8-2.4-2.3-2.4-4c0-2,1.2-3.6,3-4.2l1.5-12.4l-4.2,0.6l-1.1,5.2c-0.1,0.5-0.4,1-0.9,1.4
		c-0.5,0.4-1,0.6-1.5,0.6h-12.7l-19.5,33.1c-0.1,0.5-0.4,1-0.8,1.4c-0.5,0.4-0.9,0.6-1.5,0.6h-9.4c-0.5,0-0.9-0.2-1.3-0.6
		c-0.3-0.4-0.4-0.8-0.3-1.4l19.5-33.1h-12.7c-0.5,0-0.9-0.2-1.2-0.6c-0.3-0.4-0.4-0.8-0.3-1.4l1.4-6.6l-9-2.3l29.4-4.6l33.6,6.6
		l-4,0.6l-1.9,12.9c2.2,0.2,2.9,1.9,2.9,4.2c0,1.9-1.2,3.6-2.9,4.2C161.7,37.2,166.7,48.9,166.7,48.9z"/>
</g>
</svg>
